<?xml version="1.0" encoding="UTF-8"?>
<!-- Created with Inkscape (http://www.inkscape.org/) -->
<svg width="4096" height="4096" version="1.1" viewBox="0 0 4096 4096" xml:space="preserve" xmlns="http://www.w3.org/2000/svg" xmlns:cc="http://creativecommons.org/ns#" xmlns:dc="http://purl.org/dc/elements/1.1/" xmlns:rdf="http://www.w3.org/1999/02/22-rdf-syntax-ns#"><metadata><rdf:RDF><cc:Work rdf:about=""><dc:format>image/svg+xml</dc:format><dc:type rdf:resource="http://purl.org/dc/dcmitype/StillImage"/></cc:Work></rdf:RDF></metadata><g transform="matrix(1.3333 0 0 -1.3333 0 4096)"><g transform="matrix(5.1134 0 0 5.1134 -15686 -6320.7)"><g transform="matrix(17.244 0 0 17.244 3304.9 1587.3)"><path d="m0 0 3.667 6.334-2.964 5.128h-12.493c-0.266-0.026-0.535-0.1-0.783-0.244-0.598-0.344-0.933-0.971-0.931-1.616 0-0.282 0.062-0.563 0.196-0.832l9.166-15.928 2.972 5.14h2e-3l1.168 2.018" fill="#75c044"/></g><g transform="matrix(17.244 0 0 17.244 3317 1784.9)"><path d="m0 0 7.796-13.48h5.923l6.231 10.826c0.113 0.236 0.184 0.507 0.184 0.795 0 0.988-0.779 1.796-1.759 1.859z" fill="#00ae9d"/></g><g transform="matrix(17.244 0 0 17.244 3545.9 1552.5)"><path d="m0 0h-15.149l-2.974-5.139 6.274-10.807c0.154-0.226 0.352-0.42 0.599-0.564 0.292-0.169 0.611-0.25 0.929-0.25 0.608 0 1.204 0.305 1.56 0.845l9.202 15.915z" fill="#bfd730"/></g></g></g></svg>
