<?xml version="1.0" encoding="UTF-8"?>
<svg width="4096pt" height="4096pt" version="1.2" viewBox="0 0 4096 4096" xmlns="http://www.w3.org/2000/svg">
 <g transform="matrix(2.0392 0 0 2.0392 -512.9 803.13)">
  <path d="m1055.6 370.44v-0.0508l353.98 212.03 210.93-88.785c42.871-18.52 89.086-28.043 135.79-27.98 7.7969 0 15.492 0.36719 23.133 0.84375-72.262-281.89-359.36-451.83-641.25-379.57-127 32.555-237.3 111.29-309.36 220.82l5.375-0.16016c78.219-0.10154 154.91 21.672 221.41 62.859" fill="#0263b8"/>
  <path d="m1055.7 370.39c-66.52-41.18-143.23-62.938-221.46-62.809l-5.375 0.16016c-232.7 2.9102-418.98 193.91-416.07 426.61 1.0547 84.379 27.422 166.5 75.684 235.72l312.04-131.36 138.79-58.383 308.93-130.04 161.34-67.863z" fill="#0078d4"/>
  <path d="m1779.4 466.5c-7.6992-0.53906-15.414-0.82031-23.133-0.84375-46.684-0.0391-92.883 9.5039-135.73 28.031l-210.98 88.734 61.176 36.617 200.49 120.09 87.469 52.375 299.12 179.15c89.715-166.52 27.441-374.25-139.09-463.96-43.043-23.188-90.555-36.891-139.33-40.188" fill="#118fde"/>
  <path d="m1758.7 791.5-87.465-52.375-200.49-120.14-61.121-36.566-161.39 67.863-308.93 130.04-138.84 58.383-312.14 131.36c78.75 113.21 207.96 180.67 345.87 180.57h922.1c125.98 0.047 241.8-69.09 301.55-180z" fill="#26a6e8"/>
 </g>
</svg>
