<?xml version="1.0" encoding="UTF-8"?>
<!-- Created with Inkscape (http://www.inkscape.org/) -->
<svg width="4096" height="4096" version="1.1" viewBox="0 0 4096 4096" xml:space="preserve" xmlns="http://www.w3.org/2000/svg" xmlns:cc="http://creativecommons.org/ns#" xmlns:dc="http://purl.org/dc/elements/1.1/" xmlns:rdf="http://www.w3.org/1999/02/22-rdf-syntax-ns#"><metadata><rdf:RDF><cc:Work rdf:about=""><dc:format>image/svg+xml</dc:format><dc:type rdf:resource="http://purl.org/dc/dcmitype/StillImage"/></cc:Work></rdf:RDF></metadata><g transform="matrix(1.3333 0 0 -1.3333 0 4096)"><g transform="matrix(4.2776 0 0 4.2776 -1273.9 -29150)"><path transform="matrix(.75 0 0 -.75 0 3072)" d="m520.47-5816.6c-6.116 0.5979-12.3 2.3005-18.002 5.6113-13.749 7.9095-21.452 22.326-21.406 37.156 0 6.4839 1.4249 12.944 4.5059 19.129l210.75 366.22 58.027-100.36c0.36547-2.6129 1.1434-5.5671 2.3887-8.9707 0.95283-2.9663 0.23449-7.3382-0.47461-11.965-0.70902-4.6265-1.3979-9.6205 0.92383-13.957 4e-3 -0.01 7e-3 -0.01 0.0137-0.023 2.5648-4.9216 6.7884-6.9571 10.637-8.3379 3.8469-1.3802 7.3477-2.3128 9.8047-4.7637 2.63-2.782 4.9912-6.9139 8.1856-10.324 0.42677-0.4555 0.87426-0.8982 1.3457-1.3203-1.5051-9.9244 0.12618-20.409 3.5508-30.697 7.2564-21.798 22.573-42.74 33.453-55.678 9.2606-13.164 11.991-23.775 12.941-37.24 0.61026-14.546-7.8484-51.897 14.223-69.018l-43.621-75.469z" fill="#75c044"/><path transform="matrix(.75 0 0 -.75 0 3072)" d="m807.7-5816.6 43.639 75.455c5.866-4.5483 13.862-7.6865 24.787-8.5664 2.0593-0.1642 4.0345-0.2403 5.9277-0.2403l2e-3 -0.01c46.573 0.064 43.954 49.146 43.662 75.613-0.18892 17.341 9.4007 29.083 19.205 41.449 8.7591 10.352 20.228 25.484 26.797 42.852 5.3527 14.151 7.4336 29.811 2.1309 45.537 1.5885 0.6032 3.1656 1.5016 4.6836 2.8242 8e-3 0.01 0.0168 0.01 0.0234 0.02 3.8141 3.2476 5.0064 8.2585 6.0742 12.904 1.0684 4.6484 2.0624 9.0138 4.1465 11.369l8e-3 0.014c3.6905 4.0966 6.1324 7.5803 7.5059 10.713h126.84l143.27-248.92c2.5982-5.4262 4.2305-11.656 4.2305-18.277 0-22.716-17.911-41.296-40.443-42.744z" fill="#00ae9d"/><path transform="matrix(.75 0 0 -.75 0 3072)" d="m996.29-5506.7c0.98792 2.2525 1.4405 4.3294 1.3281 6.295-0.26866 4.701-3.7456 7.9366-8.0312 10.521-8.5711 5.1695-21.498 9.0846-29.285 18.527l-1.5098-1.2442 1.498 1.2598c-8.1704 9.7232-18.278 15.328-27.785 16.078-9.4942 0.7492-18.402-3.6366-23.197-13.225-8e-3 -0.012-0.0129-0.024-0.0195-0.037-0.64044-1.2265-1.1083-2.5174-1.4316-3.8594-12.369 0.687-23.122-3.0624-31.73-2.3691-12.689 0.6987-20.609 3.755-27.828 3.791-2.7895 6.1309-8.2208 10.116-14.912 11.644-9.2292 2.108-20.799-0.011-32.209-5.9765l0.90625-1.7344-0.91602 1.7285c-10.658-5.649-24.182-5.1309-34.168-7.2168-4.9931-1.0428-9.4119-2.8906-11.561-7.0762-1.2617-2.4579-1.6213-5.4844-1.1035-9.2382l-58.037 100.29 144.25 248.48c3.5408 5.1963 8.0943 9.6579 13.773 12.969 6.7138 3.8857 14.048 5.748 21.359 5.748 13.979 0 27.684-7.0117 35.869-19.428l211.58-365.93h-10.141z" fill="#bfd730"/></g></g></svg>
